<?xml version="1.0" standalone="no"?>
<!DOCTYPE svg PUBLIC "-//W3C//DTD SVG 20010904//EN"
 "http://www.w3.org/TR/2001/REC-SVG-20010904/DTD/svg10.dtd">
<svg version="1.0" xmlns="http://www.w3.org/2000/svg"
 width="128.000000pt" height="128.000000pt" viewBox="0 0 128.000000 128.000000"
 preserveAspectRatio="xMidYMid meet">
<metadata>
Created by potrace 1.11, written by Peter Selinger 2001-2013
</metadata>
<g transform="translate(0.000000,128.000000) scale(0.100000,-0.100000)"
fill="#000000" stroke="none">
<path d="M617 1243 c-4 -3 -7 -35 -7 -70 0 -67 15 -88 45 -63 17 14 20 91 5
121 -11 19 -31 25 -43 12z"/>
<path d="M337 1157 c-6 -16 25 -82 52 -110 17 -17 19 -17 35 -2 16 16 15 20
-12 69 -29 51 -64 71 -75 43z"/>
<path d="M875 1129 c-15 -22 -29 -47 -32 -55 -7 -19 15 -44 33 -37 20 7 64 85
64 111 0 38 -37 27 -65 -19z"/>
<path d="M540 1047 c-108 -31 -201 -106 -252 -202 -81 -154 -50 -360 73 -481
l49 -48 0 -87 c0 -99 6 -109 69 -112 23 -1 41 -4 41 -8 0 -17 67 -69 95 -75
43 -8 107 20 128 56 15 25 23 29 54 26 60 -4 73 18 73 120 0 79 2 88 24 105
40 31 96 115 116 171 90 258 -85 531 -349 544 -44 2 -95 -2 -121 -9z m232
-120 c204 -102 225 -398 38 -526 -124 -84 -278 -72 -379 29 -127 129 -123 335
10 454 61 55 117 75 203 74 55 -1 81 -7 128 -31z m-116 -680 c34 1 73 7 88 13
24 9 26 8 26 -20 0 -27 -3 -29 -42 -32 -39 -3 -44 -6 -54 -38 -17 -52 -49 -53
-70 -1 -14 36 -19 40 -56 43 -36 3 -41 6 -44 29 l-2 27 46 -12 c26 -7 75 -11
108 -9z"/>
<path d="M764 709 c-35 -23 -47 -23 -90 -3 -33 16 -37 15 -74 -1 -38 -17 -42
-17 -79 0 -66 29 -93 5 -45 -40 26 -24 53 -31 104 -26 40 4 82 4 120 -1 42 -6
80 6 108 33 40 37 3 69 -44 38z"/>
<path d="M141 957 c-20 -20 -12 -34 37 -66 57 -36 68 -38 82 -12 9 17 4 24
-32 49 -55 37 -73 43 -87 29z"/>
<path d="M1061 937 c-77 -48 -61 -98 19 -57 49 25 71 47 64 65 -10 25 -31 24
-83 -8z"/>
<path d="M75 678 c-20 -12 -19 -46 3 -51 70 -19 152 8 120 39 -16 16 -101 24
-123 12z"/>
<path d="M1115 680 c-40 -5 -51 -21 -33 -47 12 -15 102 -15 124 1 42 31 -9 56
-91 46z"/>
<path d="M183 416 c-53 -36 -65 -61 -34 -71 13 -4 35 4 63 21 49 31 58 42 51
60 -9 25 -33 22 -80 -10z"/>
<path d="M1017 433 c-16 -16 -4 -35 41 -63 56 -35 68 -37 82 -10 9 18 5 24
-37 50 -46 29 -73 37 -86 23z"/>
</g>
</svg>
